<?xml version="1.0" encoding="UTF-8"?>
<svg xmlns="http://www.w3.org/2000/svg" xmlns:xlink="http://www.w3.org/1999/xlink" width="59px" height="59px" viewBox="0 0 59 59" version="1.1">
<g id="surface1">
<path style=" stroke:none;fill-rule:nonzero;fill:rgb(0%,0%,0%);fill-opacity:1;" d="M 25.097656 32.71875 C 24.613281 32.710938 24.148438 32.515625 23.796875 32.179688 L 20.355469 28.738281 C 19.636719 28.019531 19.636719 26.851562 20.355469 26.132812 L 24.066406 22.421875 C 24.785156 21.699219 25.953125 21.699219 26.671875 22.421875 C 27.023438 22.761719 27.222656 23.230469 27.222656 23.722656 C 27.222656 24.214844 27.023438 24.683594 26.671875 25.027344 L 24.214844 27.484375 L 26.351562 29.597656 C 27.0625 30.332031 27.0625 31.496094 26.351562 32.230469 C 26.007812 32.535156 25.5625 32.710938 25.097656 32.71875 Z M 25.097656 32.71875 "/>
<path style=" stroke:none;fill-rule:nonzero;fill:rgb(0%,0%,0%);fill-opacity:1;" d="M 33.902344 32.71875 C 33.414062 32.710938 32.949219 32.515625 32.597656 32.179688 C 31.890625 31.445312 31.890625 30.28125 32.597656 29.550781 L 34.734375 27.433594 L 32.277344 24.976562 C 31.925781 24.632812 31.726562 24.164062 31.726562 23.671875 C 31.726562 23.183594 31.925781 22.714844 32.277344 22.371094 C 32.996094 21.652344 34.164062 21.652344 34.882812 22.371094 L 38.597656 26.082031 C 39.316406 26.804688 39.316406 27.96875 38.597656 28.6875 L 35.152344 32.128906 C 34.824219 32.472656 34.375 32.683594 33.902344 32.71875 Z M 33.902344 32.71875 "/>
<path style=" stroke:none;fill-rule:nonzero;fill:rgb(0%,0%,0%);fill-opacity:1;" d="M 36.875 55.925781 L 22.125 55.925781 C 17.035156 55.925781 12.90625 51.800781 12.90625 46.707031 L 12.90625 12.292969 C 12.90625 7.199219 17.035156 3.074219 22.125 3.074219 L 36.875 3.074219 C 41.964844 3.074219 46.09375 7.199219 46.09375 12.292969 L 46.09375 46.707031 C 46.09375 51.800781 41.964844 55.925781 36.875 55.925781 Z M 22.125 6.761719 C 19.070312 6.761719 16.59375 9.238281 16.59375 12.292969 L 16.59375 46.707031 C 16.59375 49.761719 19.070312 52.238281 22.125 52.238281 L 36.875 52.238281 C 39.929688 52.238281 42.40625 49.761719 42.40625 46.707031 L 42.40625 12.292969 C 42.40625 9.238281 39.929688 6.761719 36.875 6.761719 Z M 22.125 6.761719 "/>
<path style=" stroke:none;fill-rule:nonzero;fill:rgb(0%,0%,0%);fill-opacity:1;" d="M 29.5 48.550781 C 28.753906 48.550781 28.082031 48.101562 27.796875 47.414062 C 27.511719 46.726562 27.671875 45.933594 28.195312 45.40625 C 28.785156 44.816406 29.699219 44.695312 30.421875 45.113281 C 31.144531 45.527344 31.5 46.378906 31.28125 47.1875 C 31.066406 47.992188 30.335938 48.554688 29.5 48.550781 Z M 29.5 48.550781 "/>
</g>
</svg>
