<?xml version="1.0" encoding="UTF-8"?>
<svg xmlns="http://www.w3.org/2000/svg" xmlns:xlink="http://www.w3.org/1999/xlink" width="59px" height="59px" viewBox="0 0 59 59" version="1.1">
<g id="surface1">
<path style=" stroke:none;fill-rule:nonzero;fill:rgb(0%,0%,0%);fill-opacity:1;" d="M 58.957031 32.097656 L 46.949219 25.695312 L 46.949219 11.769531 L 46.886719 11.804688 L 46.949219 11.761719 L 34.632812 5.195312 L 23.480469 11.480469 L 11.695312 5.195312 L 0 11.785156 L 0.0507812 11.816406 L 0.0507812 25.878906 L 0 25.90625 L 0.0507812 25.933594 L 0.0507812 40.3125 L 12.023438 47.535156 L 12.023438 47.546875 L 12.03125 47.539062 L 12.042969 47.546875 L 12.042969 47.535156 L 24.011719 40.316406 L 24.011719 26.8125 L 34.960938 33.417969 L 34.960938 33.429688 L 34.96875 33.425781 L 34.980469 33.429688 L 34.980469 33.417969 L 34.996094 33.40625 L 34.996094 46.527344 L 46.96875 53.75 L 46.96875 53.761719 L 46.976562 53.753906 L 46.988281 53.761719 L 46.988281 53.75 L 58.960938 46.527344 L 58.960938 32.101562 L 58.898438 32.136719 Z M 22.988281 25.027344 L 12.414062 20.445312 L 12.414062 19.28125 L 22.988281 12.933594 Z M 18.492188 28.34375 L 12.4375 31.851562 L 12.417969 21.65625 L 22.398438 25.984375 Z M 12.265625 6.546875 L 22.503906 11.800781 L 12.265625 17.992188 Z M 11.152344 6.574219 L 11.152344 17.832031 L 1.488281 12.007812 Z M 0.972656 12.871094 L 11.121094 18.992188 L 11.121094 20.402344 L 0.972656 25.070312 Z M 2.171875 25.742188 L 11.121094 21.628906 L 11.121094 31.804688 L 1.601562 26.0625 Z M 11.121094 45.917969 L 1.546875 40.144531 L 11.121094 35.742188 Z M 11.121094 34.515625 L 0.972656 39.1875 L 0.972656 26.988281 L 11.121094 33.109375 Z M 12.4375 45.96875 L 12.417969 35.773438 L 22.492188 40.144531 Z M 23.09375 39.191406 L 12.414062 34.5625 L 12.414062 33.402344 L 23.09375 26.988281 Z M 34.058594 31.800781 L 24.484375 26.027344 L 34.058594 21.625 Z M 34.058594 20.402344 L 24.011719 25.019531 L 24.011719 12.933594 L 34.058594 18.992188 Z M 34.089844 17.832031 L 24.425781 12.007812 L 34.089844 6.578125 Z M 35.355469 21.660156 L 45.429688 26.027344 L 35.375 31.851562 Z M 46.027344 25.074219 L 35.351562 20.445312 L 35.351562 19.28125 L 46.027344 12.871094 Z M 35.203125 6.546875 L 45.441406 11.800781 L 35.203125 17.992188 Z M 46.066406 52.136719 L 36.492188 46.363281 L 46.066406 41.960938 Z M 46.066406 40.730469 L 35.914062 45.398438 L 35.914062 33.203125 L 46.066406 39.324219 Z M 46.09375 38.164062 L 36.597656 32.441406 L 41.296875 29.605469 L 46.097656 26.90625 Z M 47.207031 26.878906 L 57.449219 32.136719 L 47.207031 38.324219 Z M 47.378906 52.183594 L 47.359375 41.988281 L 57.4375 46.359375 Z M 58.035156 45.40625 L 47.359375 40.777344 L 47.355469 39.617188 L 58.035156 33.203125 Z M 58.035156 45.40625 "/>
</g>
</svg>
