<?xml version="1.0" encoding="UTF-8"?>
<svg xmlns="http://www.w3.org/2000/svg" xmlns:xlink="http://www.w3.org/1999/xlink" width="56px" height="56px" viewBox="0 0 56 56" version="1.1">
<g id="surface1">
<path style=" stroke:none;fill-rule:nonzero;fill:rgb(0%,0%,0%);fill-opacity:1;" d="M 42.882812 0 L 13.117188 0 C 11.136719 0 9.53125 1.609375 9.53125 3.589844 L 9.53125 42.921875 C 9.53125 44.898438 11.140625 46.507812 13.117188 46.507812 L 23.46875 46.507812 L 24.09375 44.511719 L 13.117188 44.511719 C 12.238281 44.511719 11.523438 43.800781 11.523438 42.921875 L 11.523438 3.589844 C 11.523438 2.707031 12.238281 1.992188 13.117188 1.992188 L 42.882812 1.992188 C 43.761719 1.992188 44.476562 2.707031 44.476562 3.589844 L 44.476562 42.921875 C 44.476562 43.800781 43.761719 44.511719 42.882812 44.511719 L 42.195312 44.511719 L 42.949219 46.507812 C 44.894531 46.472656 46.46875 44.878906 46.46875 42.921875 L 46.46875 3.589844 C 46.46875 1.609375 44.859375 0 42.882812 0 Z M 45.988281 42.921875 C 45.988281 44.492188 44.796875 45.8125 43.269531 46.003906 L 42.890625 44.992188 C 44.03125 44.988281 44.953125 44.0625 44.953125 42.921875 L 44.953125 3.589844 C 44.953125 2.445312 44.027344 1.511719 42.882812 1.511719 L 13.117188 1.511719 C 11.976562 1.511719 11.042969 2.445312 11.042969 3.589844 L 11.042969 42.921875 C 11.042969 44.066406 11.976562 44.996094 13.117188 44.996094 L 23.441406 44.996094 L 23.117188 46.027344 L 13.117188 46.027344 C 11.402344 46.027344 10.007812 44.636719 10.007812 42.921875 L 10.007812 3.589844 C 10.007812 1.875 11.402344 0.480469 13.117188 0.480469 L 42.882812 0.480469 C 44.59375 0.480469 45.988281 1.871094 45.988281 3.589844 C 45.988281 3.589844 45.988281 42.921875 45.988281 42.921875 Z M 45.988281 42.921875 "/>
<path style=" stroke:none;fill-rule:nonzero;fill:rgb(0%,0%,0%);fill-opacity:1;" d="M 32.730469 29.058594 C 28.976562 29.058594 25.929688 32.109375 25.929688 35.863281 C 25.929688 39.613281 28.976562 42.664062 32.730469 42.664062 C 36.480469 42.664062 39.53125 39.613281 39.53125 35.863281 C 39.53125 32.109375 36.480469 29.058594 32.730469 29.058594 Z M 32.730469 42.183594 C 29.242188 42.183594 26.410156 39.347656 26.410156 35.863281 C 26.410156 32.375 29.246094 29.539062 32.730469 29.539062 C 36.214844 29.539062 39.050781 32.375 39.050781 35.863281 C 39.050781 39.347656 36.214844 42.183594 32.730469 42.183594 Z M 32.730469 42.183594 "/>
<path style=" stroke:none;fill-rule:nonzero;fill:rgb(0%,0%,0%);fill-opacity:1;" d="M 39.496094 43.039062 L 39.699219 42.851562 C 40.542969 42.007812 40.925781 40.832031 40.742188 39.636719 L 40.734375 39.566406 L 40.757812 39.503906 C 40.941406 39.078125 41.097656 38.601562 41.214844 38.082031 L 41.226562 38.011719 L 41.28125 37.964844 C 41.988281 37.257812 42.382812 36.3125 42.382812 35.304688 C 42.382812 33.953125 41.671875 32.734375 40.480469 32.054688 L 40.421875 32.023438 L 40.390625 31.960938 C 40.335938 31.863281 40.277344 31.769531 40.214844 31.675781 L 40.15625 31.589844 L 40.132812 31.480469 C 40.136719 30.480469 39.746094 29.539062 39.035156 28.824219 C 38.378906 28.167969 37.496094 27.78125 36.546875 27.742188 L 36.417969 27.734375 L 36.351562 27.625 C 35.664062 26.472656 34.460938 25.789062 33.140625 25.789062 C 31.808594 25.789062 30.601562 26.480469 29.917969 27.636719 L 29.820312 27.804688 L 29.632812 27.742188 C 28.3125 27.289062 26.742188 27.652344 25.765625 28.628906 C 24.804688 29.585938 24.449219 31.003906 24.832031 32.328125 L 24.859375 32.414062 L 24.691406 32.773438 L 24.632812 32.816406 C 23.648438 33.535156 23.082031 34.636719 23.082031 35.84375 C 23.082031 36.917969 23.535156 37.914062 24.359375 38.640625 L 24.410156 38.6875 L 24.429688 38.753906 C 24.503906 39.003906 24.59375 39.25 24.703125 39.507812 L 24.726562 39.570312 L 24.714844 39.636719 C 24.539062 40.835938 24.917969 42.007812 25.761719 42.855469 C 25.988281 43.082031 26.242188 43.273438 26.542969 43.445312 L 26.707031 43.539062 L 24.34375 51.105469 C 24.3125 51.203125 24.347656 51.3125 24.429688 51.371094 C 24.511719 51.429688 24.621094 51.4375 24.707031 51.378906 L 27.722656 49.332031 L 29.015625 53.121094 C 29.050781 53.21875 29.140625 53.28125 29.246094 53.28125 C 29.351562 53.28125 29.441406 53.214844 29.472656 53.117188 L 31.851562 45.539062 L 32.070312 45.59375 C 32.804688 45.769531 33.558594 45.71875 34.265625 45.441406 L 34.488281 45.351562 L 38.480469 55.84375 C 38.515625 55.9375 38.605469 56 38.707031 56 C 38.707031 56 38.710938 56 38.714844 56 C 38.816406 55.996094 38.90625 55.929688 38.933594 55.828125 L 40.136719 51.871094 L 42.992188 53.527344 C 43.078125 53.578125 43.191406 53.570312 43.265625 53.503906 C 43.34375 53.4375 43.371094 53.332031 43.335938 53.234375 Z M 40.113281 51.300781 C 40.050781 51.265625 39.972656 51.257812 39.90625 51.285156 C 39.839844 51.3125 39.785156 51.371094 39.765625 51.441406 L 38.679688 55.019531 L 34.851562 44.953125 C 34.828125 44.894531 34.78125 44.847656 34.726562 44.824219 C 34.695312 44.808594 34.660156 44.800781 34.628906 44.800781 C 34.597656 44.800781 34.566406 44.808594 34.539062 44.816406 L 34.089844 44.996094 C 33.476562 45.234375 32.824219 45.28125 32.183594 45.125 L 31.75 45.019531 C 31.625 44.992188 31.5 45.058594 31.460938 45.179688 L 29.234375 52.273438 L 28.078125 48.878906 C 28.050781 48.808594 27.996094 48.753906 27.925781 48.730469 C 27.855469 48.703125 27.773438 48.714844 27.714844 48.757812 L 25.007812 50.59375 L 27.226562 43.5 C 27.257812 43.390625 27.214844 43.273438 27.117188 43.21875 L 26.78125 43.027344 C 26.519531 42.875 26.300781 42.710938 26.105469 42.515625 C 25.367188 41.777344 25.035156 40.753906 25.191406 39.707031 L 25.210938 39.574219 C 25.21875 39.527344 25.214844 39.484375 25.199219 39.445312 L 25.144531 39.324219 C 25.046875 39.089844 24.960938 38.859375 24.890625 38.613281 L 24.851562 38.484375 C 24.835938 38.441406 24.8125 38.402344 24.78125 38.375 L 24.675781 38.28125 C 23.957031 37.648438 23.5625 36.78125 23.5625 35.84375 C 23.5625 34.792969 24.054688 33.828125 24.917969 33.203125 L 25.027344 33.125 C 25.058594 33.101562 25.085938 33.070312 25.101562 33.03125 L 25.332031 32.535156 C 25.355469 32.484375 25.363281 32.425781 25.34375 32.371094 L 25.296875 32.195312 C 24.957031 31.039062 25.269531 29.804688 26.105469 28.96875 C 26.953125 28.121094 28.328125 27.804688 29.480469 28.199219 L 29.847656 28.324219 C 29.953125 28.359375 30.074219 28.316406 30.132812 28.21875 L 30.332031 27.882812 C 30.929688 26.871094 31.980469 26.265625 33.140625 26.265625 C 34.292969 26.265625 35.339844 26.867188 35.945312 27.871094 L 36.074219 28.09375 C 36.117188 28.160156 36.191406 28.203125 36.269531 28.207031 L 36.527344 28.21875 C 37.355469 28.253906 38.125 28.589844 38.695312 29.164062 C 39.316406 29.785156 39.65625 30.605469 39.65625 31.523438 L 39.699219 31.730469 C 39.703125 31.765625 39.714844 31.792969 39.734375 31.816406 L 39.808594 31.9375 C 39.867188 32.023438 39.921875 32.105469 39.96875 32.191406 L 40.035156 32.308594 C 40.054688 32.351562 40.089844 32.382812 40.128906 32.40625 L 40.242188 32.472656 C 41.28125 33.066406 41.902344 34.125 41.902344 35.304688 C 41.902344 36.183594 41.5625 37.007812 40.9375 37.625 L 40.839844 37.722656 C 40.808594 37.753906 40.785156 37.792969 40.777344 37.839844 L 40.746094 37.972656 C 40.632812 38.460938 40.492188 38.914062 40.316406 39.316406 L 40.265625 39.441406 C 40.246094 39.484375 40.242188 39.527344 40.25 39.574219 L 40.269531 39.707031 C 40.429688 40.753906 40.097656 41.777344 39.367188 42.507812 L 39.054688 42.792969 C 38.984375 42.863281 38.957031 42.964844 38.992188 43.054688 L 42.652344 52.773438 Z M 40.113281 51.300781 "/>
<path style=" stroke:none;fill-rule:nonzero;fill:rgb(0%,0%,0%);fill-opacity:1;" d="M 15.605469 15.605469 L 31.210938 15.605469 L 31.210938 31.210938 L 15.605469 31.210938 Z M 15.605469 15.605469 "/>
<path style=" stroke:none;fill-rule:nonzero;fill:rgb(0%,0%,0%);fill-opacity:1;" d="M 15.605469 15.605469 L 31.210938 15.605469 L 31.210938 31.210938 L 15.605469 31.210938 Z M 15.605469 15.605469 "/>
</g>
</svg>
