<?xml version="1.0" encoding="UTF-8"?>
<svg xmlns="http://www.w3.org/2000/svg" xmlns:xlink="http://www.w3.org/1999/xlink" width="59px" height="59px" viewBox="0 0 59 59" version="1.1">
<g id="surface1">
<path style=" stroke:none;fill-rule:nonzero;fill:rgb(0%,0%,0%);fill-opacity:1;" d="M 14.75 41.792969 L 14.75 27.042969 L 11.0625 27.042969 C 9.027344 27.042969 7.375 28.691406 7.375 30.730469 L 7.375 38.105469 C 7.375 40.140625 9.027344 41.792969 11.0625 41.792969 Z M 34.207031 49.167969 L 39.476562 49.167969 C 41.0625 49.167969 42.472656 48.152344 42.976562 46.644531 L 43.535156 44.964844 C 43.617188 44.714844 43.722656 44.476562 43.84375 44.25 L 43.019531 44.25 C 42.34375 44.25 41.792969 43.699219 41.792969 43.019531 L 41.792969 25.8125 C 41.792969 25.132812 42.34375 24.582031 43.019531 24.582031 L 44.25 24.582031 L 44.25 22.085938 C 44.25 13.941406 37.644531 7.335938 29.5 7.335938 C 21.355469 7.335938 14.75 13.941406 14.75 22.085938 L 14.75 24.582031 L 15.980469 24.582031 C 16.65625 24.582031 17.207031 25.132812 17.207031 25.8125 L 17.207031 43.019531 C 17.207031 43.699219 16.65625 44.25 15.980469 44.25 L 11.0625 44.25 C 7.667969 44.25 4.917969 41.5 4.917969 38.105469 L 4.917969 30.730469 C 4.917969 27.335938 7.667969 24.582031 11.0625 24.582031 L 12.292969 24.582031 L 12.292969 22.085938 C 12.292969 12.582031 19.996094 4.878906 29.5 4.878906 C 39.003906 4.878906 46.707031 12.582031 46.707031 22.085938 L 46.707031 24.582031 L 47.9375 24.582031 C 51.332031 24.582031 54.082031 27.335938 54.082031 30.730469 L 54.082031 38.105469 C 54.082031 41.5 51.332031 44.25 47.9375 44.25 C 47 44.25 46.164062 44.851562 45.867188 45.742188 L 45.308594 47.421875 C 44.472656 49.933594 42.121094 51.625 39.476562 51.625 L 34.207031 51.625 C 33.699219 53.058594 32.335938 54.082031 30.730469 54.082031 L 28.269531 54.082031 C 26.234375 54.082031 24.582031 52.433594 24.582031 50.394531 C 24.582031 48.359375 26.234375 46.707031 28.269531 46.707031 L 30.730469 46.707031 C 32.335938 46.707031 33.699219 47.734375 34.207031 49.167969 Z M 44.25 27.042969 L 44.25 41.792969 L 47.9375 41.792969 C 49.972656 41.792969 51.625 40.140625 51.625 38.105469 L 51.625 30.730469 C 51.625 28.691406 49.972656 27.042969 47.9375 27.042969 Z M 27.042969 50.394531 C 27.042969 51.074219 27.59375 51.625 28.269531 51.625 L 30.730469 51.625 C 31.40625 51.625 31.957031 51.074219 31.957031 50.394531 C 31.957031 49.71875 31.40625 49.167969 30.730469 49.167969 L 28.269531 49.167969 C 27.59375 49.167969 27.042969 49.71875 27.042969 50.394531 Z M 27.042969 50.394531 "/>
</g>
</svg>
