<?xml version="1.0" encoding="UTF-8"?>
<svg xmlns="http://www.w3.org/2000/svg" xmlns:xlink="http://www.w3.org/1999/xlink" width="59px" height="59px" viewBox="0 0 59 59" version="1.1">
<g id="surface1">
<path style=" stroke:none;fill-rule:nonzero;fill:rgb(0%,0%,0%);fill-opacity:1;" d="M 58.015625 55.066406 L 3.933594 55.066406 L 3.933594 0.984375 C 3.933594 0.441406 3.492188 0 2.949219 0 C 2.40625 0 1.964844 0.441406 1.964844 0.984375 L 1.964844 55.066406 L 0.984375 55.066406 C 0.441406 55.066406 0 55.507812 0 56.050781 C 0 56.59375 0.441406 57.035156 0.984375 57.035156 L 1.964844 57.035156 L 1.964844 58.015625 C 1.964844 58.558594 2.40625 59 2.949219 59 C 3.492188 59 3.933594 58.558594 3.933594 58.015625 L 3.933594 57.035156 L 58.015625 57.035156 C 58.558594 57.035156 59 56.59375 59 56.050781 C 59 55.507812 58.558594 55.066406 58.015625 55.066406 Z M 58.015625 55.066406 "/>
<path style=" stroke:none;fill-rule:nonzero;fill:rgb(0%,0%,0%);fill-opacity:1;" d="M 6.882812 28.515625 L 8.851562 28.515625 C 9.394531 28.515625 9.832031 28.078125 9.832031 27.535156 C 9.832031 26.988281 9.394531 26.550781 8.851562 26.550781 L 6.882812 26.550781 C 6.339844 26.550781 5.898438 26.988281 5.898438 27.535156 C 5.898438 28.078125 6.339844 28.515625 6.882812 28.515625 Z M 6.882812 28.515625 "/>
<path style=" stroke:none;fill-rule:nonzero;fill:rgb(0%,0%,0%);fill-opacity:1;" d="M 6.882812 24.582031 L 8.851562 24.582031 C 9.394531 24.582031 9.832031 24.144531 9.832031 23.601562 C 9.832031 23.054688 9.394531 22.617188 8.851562 22.617188 L 6.882812 22.617188 C 6.339844 22.617188 5.898438 23.054688 5.898438 23.601562 C 5.898438 24.144531 6.339844 24.582031 6.882812 24.582031 Z M 6.882812 24.582031 "/>
<path style=" stroke:none;fill-rule:nonzero;fill:rgb(0%,0%,0%);fill-opacity:1;" d="M 6.882812 20.648438 L 8.851562 20.648438 C 9.394531 20.648438 9.832031 20.210938 9.832031 19.667969 C 9.832031 19.121094 9.394531 18.683594 8.851562 18.683594 L 6.882812 18.683594 C 6.339844 18.683594 5.898438 19.121094 5.898438 19.667969 C 5.898438 20.210938 6.339844 20.648438 6.882812 20.648438 Z M 6.882812 20.648438 "/>
<path style=" stroke:none;fill-rule:nonzero;fill:rgb(0%,0%,0%);fill-opacity:1;" d="M 6.882812 16.714844 L 8.851562 16.714844 C 9.394531 16.714844 9.832031 16.277344 9.832031 15.734375 C 9.832031 15.191406 9.394531 14.75 8.851562 14.75 L 6.882812 14.75 C 6.339844 14.75 5.898438 15.191406 5.898438 15.734375 C 5.898438 16.277344 6.339844 16.714844 6.882812 16.714844 Z M 6.882812 16.714844 "/>
<path style=" stroke:none;fill-rule:nonzero;fill:rgb(0%,0%,0%);fill-opacity:1;" d="M 6.882812 12.785156 L 8.851562 12.785156 C 9.394531 12.785156 9.832031 12.34375 9.832031 11.800781 C 9.832031 11.257812 9.394531 10.816406 8.851562 10.816406 L 6.882812 10.816406 C 6.339844 10.816406 5.898438 11.257812 5.898438 11.800781 C 5.898438 12.34375 6.339844 12.785156 6.882812 12.785156 Z M 6.882812 12.785156 "/>
<path style=" stroke:none;fill-rule:nonzero;fill:rgb(0%,0%,0%);fill-opacity:1;" d="M 6.882812 8.851562 L 8.851562 8.851562 C 9.394531 8.851562 9.832031 8.410156 9.832031 7.867188 C 9.832031 7.324219 9.394531 6.882812 8.851562 6.882812 L 6.882812 6.882812 C 6.339844 6.882812 5.898438 7.324219 5.898438 7.867188 C 5.898438 8.410156 6.339844 8.851562 6.882812 8.851562 Z M 6.882812 8.851562 "/>
<path style=" stroke:none;fill-rule:nonzero;fill:rgb(0%,0%,0%);fill-opacity:1;" d="M 6.882812 4.917969 L 8.851562 4.917969 C 9.394531 4.917969 9.832031 4.476562 9.832031 3.933594 C 9.832031 3.390625 9.394531 2.949219 8.851562 2.949219 L 6.882812 2.949219 C 6.339844 2.949219 5.898438 3.390625 5.898438 3.933594 C 5.898438 4.476562 6.339844 4.917969 6.882812 4.917969 Z M 6.882812 4.917969 "/>
<path style=" stroke:none;fill-rule:nonzero;fill:rgb(0%,0%,0%);fill-opacity:1;" d="M 10.828125 48.171875 C 14.082031 48.171875 16.730469 45.523438 16.730469 42.269531 C 16.730469 40.746094 16.144531 39.363281 15.195312 38.3125 L 18.660156 34.847656 C 19.707031 35.796875 21.09375 36.382812 22.617188 36.382812 C 24.140625 36.382812 25.523438 35.796875 26.574219 34.847656 L 31.035156 39.308594 C 30.085938 40.359375 29.5 41.742188 29.5 43.265625 C 29.5 46.519531 32.144531 49.167969 35.398438 49.167969 C 38.652344 49.167969 41.300781 46.519531 41.300781 43.265625 C 41.300781 42.25 41.042969 41.292969 40.585938 40.453125 L 49.144531 31.894531 C 50.191406 32.847656 51.578125 33.433594 53.101562 33.433594 C 56.355469 33.433594 59 30.789062 59 27.535156 C 59 24.28125 56.355469 21.632812 53.101562 21.632812 C 49.847656 21.632812 47.199219 24.28125 47.199219 27.535156 C 47.199219 28.550781 47.457031 29.507812 47.914062 30.34375 L 39.355469 38.902344 C 38.308594 37.953125 36.921875 37.367188 35.398438 37.367188 C 34.382812 37.367188 33.425781 37.625 32.585938 38.082031 L 27.800781 33.292969 C 28.257812 32.457031 28.515625 31.5 28.515625 30.484375 C 28.515625 27.230469 25.871094 24.582031 22.617188 24.582031 C 19.363281 24.582031 16.714844 27.230469 16.714844 30.484375 C 16.714844 31.5 16.976562 32.457031 17.429688 33.296875 L 13.640625 37.085938 C 12.804688 36.628906 11.847656 36.371094 10.828125 36.371094 C 7.574219 36.371094 4.929688 39.019531 4.929688 42.273438 C 4.929688 45.523438 7.574219 48.171875 10.828125 48.171875 Z M 10.828125 48.171875 "/>
</g>
</svg>
