<?xml version="1.0" encoding="UTF-8"?>
<svg xmlns="http://www.w3.org/2000/svg" xmlns:xlink="http://www.w3.org/1999/xlink" width="47px" height="47px" viewBox="0 0 47 47" version="1.1">
<g id="surface1">
<path style=" stroke:none;fill-rule:nonzero;fill:rgb(0%,0%,0%);;fill-opacity:1;" d="M 25.941406 30.292969 L 23.820312 31.664062 C 23.722656 31.726562 23.609375 31.757812 23.5 31.757812 C 23.390625 31.757812 23.277344 31.726562 23.179688 31.664062 L 21.058594 30.292969 L 10.511719 37.105469 L 7.304688 39.179688 C 7.550781 39.601562 8.003906 39.882812 8.527344 39.882812 L 38.472656 39.882812 C 38.996094 39.882812 39.449219 39.601562 39.695312 39.179688 L 36.488281 37.105469 Z M 25.941406 30.292969 "/>
<path style=" stroke:none;fill-rule:nonzero;fill:rgb(0%,0%,0%);;fill-opacity:1;" d="M 10.894531 22.332031 L 23.5 30.472656 L 25.847656 28.953125 C 25.59375 29.03125 25.328125 29.070312 25.0625 29.070312 C 24.335938 29.070312 23.652344 28.792969 23.128906 28.289062 L 19.832031 25.089844 C 19.628906 25.164062 19.410156 25.203125 19.191406 25.203125 C 18.71875 25.203125 18.273438 25.027344 17.9375 24.71875 C 17.523438 24.890625 17.074219 24.984375 16.621094 24.984375 C 16.003906 24.984375 15.40625 24.816406 14.890625 24.511719 C 14.375 24.210938 13.941406 23.769531 13.640625 23.230469 L 12.820312 21.75 C 12.527344 21.230469 12.382812 20.652344 12.390625 20.070312 L 8.527344 20.070312 C 8.242188 20.070312 7.976562 20.15625 7.753906 20.300781 L 8.128906 20.542969 Z M 10.894531 22.332031 "/>
<path style=" stroke:none;fill-rule:nonzero;fill:rgb(0%,0%,0%);;fill-opacity:1;" d="M 33.707031 21.410156 C 33.578125 21.863281 33.277344 22.238281 32.867188 22.464844 C 32.605469 22.609375 32.308594 22.6875 32.011719 22.6875 C 31.8125 22.6875 31.617188 22.65625 31.4375 22.589844 C 31.253906 22.527344 31.082031 22.4375 30.929688 22.316406 L 29.730469 22.558594 L 28.519531 22.800781 L 25.96875 23.316406 L 26.992188 24.308594 C 27.625 24.925781 27.925781 25.78125 27.808594 26.660156 C 27.738281 27.207031 27.511719 27.703125 27.167969 28.101562 L 36.105469 22.332031 L 38.871094 20.542969 L 39.246094 20.300781 C 39.023438 20.15625 38.757812 20.070312 38.472656 20.070312 L 33.554688 20.070312 C 33.78125 20.480469 33.835938 20.957031 33.707031 21.410156 Z M 33.707031 21.410156 "/>
<path style=" stroke:none;fill-rule:nonzero;fill:rgb(0%,0%,0%);;fill-opacity:1;" d="M 39.871094 21.296875 L 38.269531 22.332031 L 27.023438 29.59375 L 37.125 36.121094 L 39.882812 37.902344 L 39.882812 21.480469 C 39.882812 21.417969 39.878906 21.355469 39.871094 21.296875 Z M 39.871094 21.296875 "/>
<path style=" stroke:none;fill-rule:nonzero;fill:rgb(0%,0%,0%);;fill-opacity:1;" d="M 19.976562 29.59375 L 8.730469 22.332031 L 7.128906 21.296875 C 7.121094 21.355469 7.117188 21.417969 7.117188 21.480469 L 7.117188 37.902344 L 9.875 36.121094 Z M 19.976562 29.59375 "/>
<path style=" stroke:none;fill-rule:nonzero;fill:rgb(0%,0%,0%);;fill-opacity:1;" d="M 22.671875 9.855469 L 29.132812 21.480469 L 31.359375 21.035156 C 31.371094 21.03125 31.382812 21.027344 31.394531 21.023438 L 31.496094 21.210938 C 31.65625 21.496094 32.011719 21.597656 32.296875 21.4375 C 32.578125 21.28125 32.683594 20.921875 32.523438 20.640625 L 30.425781 16.863281 C 31.992188 15.996094 32.554688 14.019531 31.6875 12.453125 C 30.820312 10.890625 28.839844 10.324219 27.277344 11.195312 L 25.179688 7.417969 C 25.023438 7.132812 24.667969 7.03125 24.382812 7.191406 C 24.097656 7.347656 23.996094 7.703125 24.152344 7.988281 L 24.257812 8.175781 C 24.25 8.183594 24.238281 8.191406 24.230469 8.199219 Z M 30.660156 13.023438 C 31.214844 14.023438 30.855469 15.285156 29.855469 15.835938 L 27.847656 12.222656 C 28.84375 11.667969 30.105469 12.027344 30.660156 13.023438 Z M 30.660156 13.023438 "/>
<path style=" stroke:none;fill-rule:nonzero;fill:rgb(0%,0%,0%);;fill-opacity:1;" d="M 14.667969 22.660156 C 15.265625 23.738281 16.625 24.125 17.703125 23.527344 L 18.320312 23.183594 L 18.59375 23.679688 C 18.777344 24.007812 19.191406 24.125 19.519531 23.941406 L 19.527344 23.9375 C 19.867188 23.75 20.285156 23.835938 20.539062 24.128906 C 20.570312 24.164062 20.601562 24.195312 20.632812 24.230469 L 23.949219 27.445312 C 24.453125 27.933594 25.21875 28.035156 25.835938 27.695312 C 26.773438 27.171875 26.941406 25.898438 26.171875 25.152344 L 23.546875 22.601562 L 27.921875 21.722656 L 21.828125 10.753906 L 17.332031 15.527344 C 17.261719 15.601562 17.214844 15.691406 17.183594 15.785156 C 17.160156 15.796875 17.132812 15.808594 17.105469 15.820312 L 15.503906 16.710938 C 15.175781 16.894531 15.058594 17.308594 15.238281 17.636719 L 15.332031 17.800781 L 14.714844 18.144531 C 13.636719 18.742188 13.246094 20.101562 13.847656 21.179688 Z M 15.285156 19.171875 L 15.902344 18.828125 L 17.75 22.15625 L 17.132812 22.5 C 16.625 22.785156 15.980469 22.597656 15.695312 22.089844 L 14.875 20.609375 C 14.589844 20.101562 14.773438 19.457031 15.285156 19.171875 Z M 15.285156 19.171875 "/>
<path style=" stroke:none;fill-rule:nonzero;fill:rgb(0%,0%,0%);;fill-opacity:1;" d="M 31.5625 10.605469 C 31.664062 10.675781 31.777344 10.707031 31.894531 10.707031 C 32.082031 10.707031 32.265625 10.617188 32.378906 10.453125 L 33.789062 8.382812 C 33.972656 8.117188 33.902344 7.75 33.632812 7.566406 C 33.367188 7.382812 33 7.453125 32.816406 7.722656 L 31.410156 9.789062 C 31.226562 10.058594 31.292969 10.421875 31.5625 10.605469 Z M 31.5625 10.605469 "/>
<path style=" stroke:none;fill-rule:nonzero;fill:rgb(0%,0%,0%);;fill-opacity:1;" d="M 35.449219 15.957031 C 35.535156 15.996094 35.625 16.015625 35.710938 16.015625 C 35.929688 16.015625 36.136719 15.898438 36.238281 15.691406 C 36.382812 15.402344 36.265625 15.046875 35.972656 14.902344 L 33.734375 13.789062 C 33.441406 13.644531 33.089844 13.761719 32.945312 14.050781 C 32.800781 14.34375 32.917969 14.695312 33.210938 14.839844 Z M 35.449219 15.957031 "/>
<path style=" stroke:none;fill-rule:nonzero;fill:rgb(0%,0%,0%);;fill-opacity:1;" d="M 32.507812 12.503906 C 32.621094 12.671875 32.808594 12.761719 32.996094 12.761719 C 33.109375 12.761719 33.222656 12.730469 33.324219 12.660156 L 37.496094 9.816406 C 37.765625 9.632812 37.832031 9.265625 37.652344 9 C 37.46875 8.730469 37.101562 8.660156 36.835938 8.84375 L 32.664062 11.691406 C 32.394531 11.871094 32.324219 12.238281 32.507812 12.503906 Z M 32.507812 12.503906 "/>
</g>
</svg>
