<?xml version="1.0" encoding="UTF-8"?>
<svg xmlns="http://www.w3.org/2000/svg" xmlns:xlink="http://www.w3.org/1999/xlink" width="47px" height="47px" viewBox="0 0 47 47" version="1.1">
<g id="surface1">
<path style=" stroke:none;fill-rule:nonzero;fill:rgb(0%,0%,0%);fill-opacity:1;" d="M 15.351562 22.582031 C 15.027344 24.0625 13.707031 25.175781 12.128906 25.175781 C 11.710938 25.175781 11.371094 25.515625 11.371094 25.9375 C 11.371094 26.355469 11.710938 26.699219 12.128906 26.699219 C 14.542969 26.699219 16.546875 24.914062 16.898438 22.597656 C 18.375 22.4375 19.738281 21.78125 20.796875 20.703125 C 21.089844 20.402344 21.085938 19.917969 20.785156 19.625 C 20.484375 19.332031 20.003906 19.335938 19.707031 19.636719 C 18.773438 20.589844 17.523438 21.113281 16.191406 21.113281 C 13.476562 21.113281 11.269531 18.90625 11.269531 16.191406 C 11.269531 15.769531 10.925781 15.429688 10.507812 15.429688 C 10.085938 15.429688 9.746094 15.769531 9.746094 16.191406 C 9.746094 19.460938 12.195312 22.167969 15.351562 22.582031 Z M 15.351562 22.582031 "/>
<path style=" stroke:none;fill-rule:nonzero;fill:rgb(0%,0%,0%);fill-opacity:1;" d="M 18.578125 29.183594 C 18.578125 28.765625 18.234375 28.421875 17.816406 28.421875 C 14.261719 28.421875 11.371094 31.316406 11.371094 34.871094 C 11.371094 34.90625 11.371094 34.941406 11.371094 34.980469 C 11.089844 34.941406 10.800781 34.921875 10.507812 34.921875 C 10.085938 34.921875 9.746094 35.261719 9.746094 35.679688 C 9.746094 36.101562 10.085938 36.441406 10.507812 36.441406 C 13.222656 36.441406 15.429688 38.652344 15.429688 41.367188 C 15.429688 41.785156 15.769531 42.128906 16.191406 42.128906 C 16.613281 42.128906 16.953125 41.785156 16.953125 41.367188 C 16.953125 38.664062 15.28125 36.347656 12.917969 35.390625 C 12.902344 35.21875 12.890625 35.042969 12.890625 34.871094 C 12.890625 32.15625 15.101562 29.945312 17.816406 29.945312 C 18.234375 29.945312 18.578125 29.605469 18.578125 29.183594 Z M 18.578125 29.183594 "/>
<path style=" stroke:none;fill-rule:nonzero;fill:rgb(0%,0%,0%);fill-opacity:1;" d="M 44.5625 22.6875 C 44.5625 20.953125 43.871094 19.3125 42.648438 18.105469 C 42.839844 17.484375 42.941406 16.84375 42.941406 16.191406 C 42.941406 13.058594 40.691406 10.441406 37.722656 9.863281 C 37.949219 9.296875 38.066406 8.691406 38.066406 8.070312 C 38.066406 6.085938 36.859375 4.375 35.144531 3.636719 C 32.28125 1.359375 29.148438 0 26.75 0 C 25.414062 0 24.230469 0.65625 23.5 1.664062 C 22.769531 0.65625 21.585938 0 20.25 0 C 17.851562 0 14.71875 1.359375 11.855469 3.636719 C 10.140625 4.375 8.933594 6.085938 8.933594 8.070312 C 8.933594 8.691406 9.050781 9.296875 9.277344 9.863281 C 6.308594 10.441406 4.058594 13.058594 4.058594 16.191406 C 4.058594 16.84375 4.160156 17.484375 4.351562 18.105469 C 3.128906 19.3125 2.4375 20.953125 2.4375 22.6875 C 2.4375 24.042969 2.859375 25.300781 3.574219 26.339844 C 2.828125 27.417969 2.4375 28.671875 2.4375 29.996094 C 2.4375 32.339844 3.714844 34.488281 5.738281 35.621094 C 5.703125 35.910156 5.683594 36.203125 5.683594 36.492188 C 5.683594 39.65625 7.746094 42.449219 10.738281 43.402344 C 12.039062 45.628906 14.410156 47 17.003906 47 C 19.84375 47 22.308594 45.359375 23.5 42.972656 C 24.691406 45.359375 27.15625 47 29.996094 47 C 32.589844 47 34.960938 45.628906 36.261719 43.402344 C 39.253906 42.449219 41.316406 39.65625 41.316406 36.492188 C 41.316406 36.203125 41.296875 35.910156 41.261719 35.621094 C 43.285156 34.488281 44.5625 32.339844 44.5625 29.996094 C 44.5625 28.671875 44.171875 27.417969 43.425781 26.339844 C 44.140625 25.300781 44.5625 24.042969 44.5625 22.6875 Z M 17.003906 45.476562 C 14.867188 45.476562 12.921875 44.300781 11.925781 42.40625 C 11.828125 42.21875 11.65625 42.082031 11.449219 42.023438 C 8.953125 41.351562 7.207031 39.078125 7.207031 36.492188 C 7.207031 36.105469 7.246094 35.71875 7.324219 35.34375 C 7.394531 34.992188 7.210938 34.640625 6.886719 34.496094 C 5.109375 33.703125 3.957031 31.9375 3.957031 29.996094 C 3.957031 29.113281 4.1875 28.269531 4.625 27.523438 C 5.761719 28.523438 7.25 29.132812 8.882812 29.132812 C 9.304688 29.132812 9.644531 28.792969 9.644531 28.371094 C 9.644531 27.953125 9.304688 27.609375 8.882812 27.609375 C 6.167969 27.609375 3.957031 25.402344 3.957031 22.6875 C 3.957031 21.226562 4.605469 19.847656 5.726562 18.910156 C 5.980469 18.699219 6.070312 18.34375 5.945312 18.039062 C 5.703125 17.445312 5.582031 16.824219 5.582031 16.191406 C 5.582031 13.476562 7.792969 11.269531 10.507812 11.269531 C 13.222656 11.269531 15.429688 13.476562 15.429688 16.191406 C 15.429688 16.613281 15.769531 16.953125 16.191406 16.953125 C 16.613281 16.953125 16.953125 16.613281 16.953125 16.191406 C 16.953125 12.777344 14.28125 9.972656 10.921875 9.761719 C 10.617188 9.25 10.457031 8.671875 10.457031 8.070312 C 10.457031 6.714844 11.28125 5.546875 12.453125 5.039062 C 12.5 5.027344 12.542969 5.007812 12.585938 4.984375 C 12.949219 4.847656 13.34375 4.769531 13.753906 4.769531 C 15.03125 4.769531 16.167969 5.484375 16.726562 6.632812 C 16.910156 7.007812 17.363281 7.167969 17.742188 6.984375 C 18.121094 6.800781 18.277344 6.34375 18.09375 5.964844 C 17.457031 4.65625 16.253906 3.714844 14.867188 3.382812 C 16.8125 2.195312 18.722656 1.523438 20.25 1.523438 C 21.621094 1.523438 22.738281 2.636719 22.738281 4.007812 L 22.738281 13.863281 C 22.054688 13.320312 21.191406 12.992188 20.25 12.992188 C 19.832031 12.992188 19.492188 13.335938 19.492188 13.753906 C 19.492188 14.175781 19.832031 14.515625 20.25 14.515625 C 21.621094 14.515625 22.738281 15.632812 22.738281 17.003906 L 22.738281 35.304688 C 21.792969 34.082031 20.457031 33.160156 18.886719 32.738281 C 18.480469 32.628906 18.0625 32.871094 17.953125 33.277344 C 17.847656 33.683594 18.085938 34.101562 18.492188 34.210938 C 20.992188 34.882812 22.738281 37.15625 22.738281 39.742188 C 22.738281 42.90625 20.164062 45.476562 17.003906 45.476562 Z M 40.113281 34.496094 C 39.789062 34.640625 39.605469 34.992188 39.675781 35.34375 C 39.753906 35.71875 39.792969 36.105469 39.792969 36.492188 C 39.792969 39.078125 38.046875 41.351562 35.550781 42.023438 C 35.34375 42.082031 35.171875 42.21875 35.074219 42.40625 C 34.078125 44.300781 32.132812 45.476562 29.996094 45.476562 C 26.835938 45.476562 24.261719 42.90625 24.261719 39.742188 C 24.261719 39.527344 24.25 39.316406 24.234375 39.105469 C 24.25 39.039062 24.261719 38.972656 24.261719 38.902344 L 24.261719 13.753906 C 24.261719 12.382812 25.378906 11.269531 26.75 11.269531 C 27.167969 11.269531 27.507812 10.925781 27.507812 10.507812 C 27.507812 10.085938 27.167969 9.746094 26.75 9.746094 C 25.808594 9.746094 24.945312 10.070312 24.261719 10.613281 L 24.261719 4.007812 C 24.261719 2.636719 25.378906 1.523438 26.75 1.523438 C 28.277344 1.523438 30.1875 2.195312 32.132812 3.382812 C 30.746094 3.714844 29.542969 4.65625 28.90625 5.964844 C 28.722656 6.34375 28.878906 6.800781 29.257812 6.984375 C 29.636719 7.167969 30.089844 7.007812 30.273438 6.632812 C 30.832031 5.484375 31.96875 4.769531 33.246094 4.769531 C 33.65625 4.769531 34.050781 4.847656 34.414062 4.984375 C 34.457031 5.007812 34.5 5.027344 34.546875 5.039062 C 35.71875 5.546875 36.542969 6.714844 36.542969 8.070312 C 36.542969 8.671875 36.382812 9.25 36.078125 9.761719 C 32.71875 9.972656 30.046875 12.777344 30.046875 16.191406 C 30.046875 16.613281 30.386719 16.953125 30.808594 16.953125 C 31.230469 16.953125 31.570312 16.613281 31.570312 16.191406 C 31.570312 13.476562 33.777344 11.269531 36.492188 11.269531 C 39.207031 11.269531 41.417969 13.476562 41.417969 16.191406 C 41.417969 16.824219 41.296875 17.445312 41.054688 18.039062 C 40.929688 18.347656 41.019531 18.699219 41.273438 18.910156 C 42.394531 19.847656 43.042969 21.226562 43.042969 22.6875 C 43.042969 25.402344 40.832031 27.609375 38.117188 27.609375 C 37.695312 27.609375 37.355469 27.953125 37.355469 28.371094 C 37.355469 28.792969 37.695312 29.132812 38.117188 29.132812 C 39.75 29.132812 41.238281 28.523438 42.375 27.523438 C 42.8125 28.269531 43.042969 29.113281 43.042969 29.996094 C 43.042969 31.9375 41.890625 33.703125 40.113281 34.496094 Z M 40.113281 34.496094 "/>
<path style=" stroke:none;fill-rule:nonzero;fill:rgb(0%,0%,0%);fill-opacity:1;" d="M 36.492188 24.363281 C 34.917969 24.363281 33.59375 23.25 33.269531 21.769531 C 36.429688 21.355469 38.878906 18.648438 38.878906 15.378906 C 38.878906 14.957031 38.539062 14.617188 38.117188 14.617188 C 37.695312 14.617188 37.355469 14.957031 37.355469 15.378906 C 37.355469 18.09375 35.148438 20.300781 32.433594 20.300781 C 31.097656 20.300781 29.851562 19.777344 28.917969 18.824219 C 28.621094 18.523438 28.140625 18.519531 27.839844 18.8125 C 27.539062 19.109375 27.535156 19.589844 27.828125 19.890625 C 28.882812 20.96875 30.25 21.625 31.726562 21.785156 C 32.074219 24.101562 34.082031 25.886719 36.492188 25.886719 C 36.914062 25.886719 37.253906 25.542969 37.253906 25.125 C 37.253906 24.703125 36.914062 24.363281 36.492188 24.363281 Z M 36.492188 24.363281 "/>
<path style=" stroke:none;fill-rule:nonzero;fill:rgb(0%,0%,0%);fill-opacity:1;" d="M 34.058594 33.296875 C 33.765625 33.296875 33.476562 33.316406 33.191406 33.355469 C 33.191406 33.320312 33.195312 33.28125 33.195312 33.246094 C 33.195312 29.691406 30.300781 26.800781 26.75 26.800781 C 26.328125 26.800781 25.988281 27.140625 25.988281 27.558594 C 25.988281 27.980469 26.328125 28.320312 26.75 28.320312 C 29.464844 28.320312 31.671875 30.53125 31.671875 33.246094 C 31.671875 33.417969 31.664062 33.59375 31.644531 33.765625 C 29.28125 34.722656 27.609375 37.039062 27.609375 39.742188 C 27.609375 40.164062 27.953125 40.503906 28.371094 40.503906 C 28.792969 40.503906 29.132812 40.164062 29.132812 39.742188 C 29.132812 37.027344 31.34375 34.820312 34.058594 34.820312 C 34.476562 34.820312 34.820312 34.476562 34.820312 34.058594 C 34.820312 33.636719 34.476562 33.296875 34.058594 33.296875 Z M 34.058594 33.296875 "/>
</g>
</svg>
