<?xml version="1.0" encoding="UTF-8"?>
<svg xmlns="http://www.w3.org/2000/svg" xmlns:xlink="http://www.w3.org/1999/xlink" width="51px" height="51px" viewBox="0 0 58 58" version="1.1">
<g id="surface1">
<path style=" stroke:none;fill-rule:nonzero;fill:rgb(0%,0%,0%);fill-opacity:1;" d="M 26.304688 6.09375 L 27.277344 6.09375 L 27.277344 23.472656 C 27.277344 24.808594 28.367188 25.894531 29.703125 25.894531 L 52.789062 25.894531 C 54.125 25.894531 55.214844 24.808594 55.214844 23.472656 L 55.214844 6.09375 L 56.1875 6.09375 C 56.820312 6.09375 57.320312 5.574219 57.320312 4.960938 C 57.320312 4.351562 56.800781 3.828125 56.1875 3.828125 L 54.195312 3.828125 C 54.148438 3.828125 54.101562 3.804688 54.082031 3.804688 C 54.035156 3.804688 53.988281 3.828125 53.96875 3.828125 L 28.546875 3.828125 C 28.5 3.828125 28.457031 3.804688 28.433594 3.804688 C 28.386719 3.804688 28.34375 3.828125 28.320312 3.828125 L 26.328125 3.828125 C 25.691406 3.828125 25.195312 4.351562 25.195312 4.960938 C 25.195312 5.574219 25.667969 6.09375 26.304688 6.09375 Z M 52.949219 23.472656 C 52.949219 23.5625 52.878906 23.628906 52.789062 23.628906 L 29.703125 23.628906 C 29.613281 23.628906 29.542969 23.5625 29.542969 23.472656 L 29.542969 6.09375 L 52.925781 6.09375 L 52.925781 23.472656 Z M 52.949219 23.472656 "/>
<path style=" stroke:none;fill-rule:nonzero;fill:rgb(0%,0%,0%);fill-opacity:1;" d="M 55.214844 46.738281 C 53.71875 45.992188 51 45.019531 49.664062 44.566406 L 49.664062 44.519531 C 50.363281 43.886719 50.863281 43.070312 51.15625 42.164062 C 51.882812 41.9375 52.496094 41.394531 52.8125 40.667969 C 53.015625 40.261719 53.128906 39.808594 53.128906 39.355469 C 53.128906 39.035156 53.082031 38.742188 52.96875 38.449219 C 52.878906 38.085938 52.699219 37.769531 52.449219 37.519531 C 52.722656 35.886719 52.3125 34.234375 51.292969 32.941406 C 50.136719 31.445312 48.347656 30.5625 46.398438 30.519531 C 46.308594 30.519531 46.21875 30.519531 46.171875 30.519531 C 46.082031 30.519531 45.992188 30.519531 45.878906 30.519531 C 43.929688 30.5625 42.140625 31.445312 40.984375 32.941406 C 39.964844 34.257812 39.558594 35.910156 39.828125 37.519531 C 39.582031 37.769531 39.398438 38.085938 39.308594 38.449219 C 39.195312 38.742188 39.148438 39.035156 39.148438 39.355469 C 39.148438 39.808594 39.261719 40.261719 39.46875 40.667969 C 39.785156 41.394531 40.394531 41.9375 41.121094 42.164062 C 41.394531 43.070312 41.914062 43.886719 42.617188 44.519531 L 42.617188 44.566406 C 41.4375 44.972656 39.148438 45.789062 37.5625 46.511719 C 36.023438 45.8125 33.710938 44.972656 32.511719 44.566406 L 32.511719 44.519531 C 33.214844 43.886719 33.710938 43.070312 34.007812 42.164062 C 34.730469 41.9375 35.34375 41.394531 35.660156 40.667969 C 35.863281 40.261719 35.976562 39.808594 35.976562 39.355469 C 35.976562 39.035156 35.933594 38.742188 35.820312 38.449219 C 35.730469 38.085938 35.546875 37.769531 35.296875 37.519531 C 35.570312 35.886719 35.164062 34.234375 34.144531 32.941406 C 32.988281 31.445312 31.199219 30.5625 29.25 30.519531 C 29.160156 30.519531 29.066406 30.519531 29.023438 30.519531 C 28.933594 30.519531 28.839844 30.519531 28.726562 30.519531 C 26.78125 30.5625 24.988281 31.445312 23.835938 32.941406 C 22.816406 34.257812 22.40625 35.910156 22.679688 37.519531 C 22.429688 37.769531 22.25 38.085938 22.15625 38.449219 C 22.042969 38.742188 22 39.035156 22 39.355469 C 22 39.808594 22.113281 40.261719 22.316406 40.667969 C 22.632812 41.394531 23.246094 41.9375 23.96875 42.164062 C 24.242188 43.070312 24.761719 43.886719 25.464844 44.519531 L 25.464844 44.566406 C 24.265625 44.972656 21.976562 45.8125 20.414062 46.511719 C 18.871094 45.8125 16.5625 44.972656 15.359375 44.566406 L 15.359375 44.519531 C 16.0625 43.886719 16.5625 43.070312 16.855469 42.164062 C 17.582031 41.9375 18.191406 41.394531 18.511719 40.667969 C 18.714844 40.261719 18.828125 39.808594 18.828125 39.355469 C 18.828125 39.035156 18.78125 38.742188 18.667969 38.449219 C 18.578125 38.085938 18.398438 37.769531 18.148438 37.519531 C 18.417969 35.886719 18.011719 34.234375 16.992188 32.941406 C 15.835938 31.445312 14.046875 30.5625 12.097656 30.519531 C 12.007812 30.519531 11.917969 30.519531 11.871094 30.519531 C 11.78125 30.519531 11.691406 30.519531 11.578125 30.519531 C 9.628906 30.5625 7.839844 31.445312 6.683594 32.941406 C 5.664062 34.257812 5.257812 35.910156 5.527344 37.519531 C 5.277344 37.769531 5.097656 38.085938 5.007812 38.449219 C 4.894531 38.742188 4.847656 39.035156 4.847656 39.355469 C 4.847656 39.808594 4.960938 40.261719 5.164062 40.667969 C 5.484375 41.394531 6.09375 41.9375 6.820312 42.164062 C 7.089844 43.070312 7.613281 43.886719 8.316406 44.519531 L 8.316406 44.566406 C 6.976562 45.019531 4.257812 46.015625 2.765625 46.738281 C 1.859375 47.191406 1.199219 48.054688 1.042969 49.074219 C 0.703125 51.066406 0.632812 54.308594 0.632812 54.441406 C 0.632812 55.078125 1.132812 55.597656 1.765625 55.597656 C 1.765625 55.597656 1.789062 55.597656 1.789062 55.597656 C 2.402344 55.597656 2.921875 55.101562 2.921875 54.464844 C 2.921875 54.441406 2.992188 51.269531 3.285156 49.4375 C 3.332031 49.140625 3.511719 48.890625 3.785156 48.757812 C 5.617188 47.851562 9.765625 46.445312 9.808594 46.421875 C 10.285156 46.265625 10.582031 45.832031 10.582031 45.335938 L 10.582031 43.929688 C 10.582031 43.566406 10.421875 43.226562 10.128906 43.023438 L 10.015625 42.933594 C 9.425781 42.503906 9.039062 41.824219 8.902344 41.097656 L 8.882812 40.941406 C 8.789062 40.375 8.316406 39.964844 7.75 39.964844 L 7.636719 39.964844 C 7.429688 39.964844 7.296875 39.828125 7.25 39.695312 C 7.226562 39.648438 7.203125 39.601562 7.183594 39.582031 C 7.136719 39.488281 7.113281 39.398438 7.113281 39.308594 C 7.113281 39.261719 7.113281 39.195312 7.136719 39.148438 C 7.136719 39.128906 7.160156 39.105469 7.160156 39.105469 L 7.386719 38.96875 C 7.816406 38.71875 8.019531 38.222656 7.90625 37.746094 L 7.816406 37.316406 C 7.566406 36.25 7.792969 35.164062 8.472656 34.300781 C 9.199219 33.351562 10.355469 32.804688 11.621094 32.761719 L 12.03125 32.761719 C 13.300781 32.785156 14.433594 33.351562 15.179688 34.300781 C 15.859375 35.164062 16.085938 36.226562 15.835938 37.316406 L 15.746094 37.746094 C 15.632812 38.222656 15.835938 38.71875 16.265625 38.96875 L 16.492188 39.105469 C 16.492188 39.128906 16.515625 39.148438 16.515625 39.148438 C 16.539062 39.195312 16.539062 39.261719 16.539062 39.308594 C 16.539062 39.398438 16.515625 39.488281 16.472656 39.582031 C 16.449219 39.625 16.425781 39.671875 16.402344 39.695312 C 16.359375 39.808594 16.222656 39.964844 16.019531 39.964844 L 15.90625 39.964844 C 15.339844 39.964844 14.863281 40.375 14.773438 40.941406 L 14.75 41.097656 C 14.636719 41.824219 14.226562 42.503906 13.660156 42.933594 L 13.546875 43.023438 C 13.253906 43.25 13.09375 43.566406 13.09375 43.929688 L 13.09375 45.335938 C 13.09375 45.832031 13.414062 46.265625 13.867188 46.421875 C 13.910156 46.445312 18.058594 47.828125 19.847656 48.734375 C 20.1875 48.914062 20.59375 48.914062 20.933594 48.757812 C 22.769531 47.851562 26.914062 46.445312 26.960938 46.421875 C 27.4375 46.265625 27.730469 45.832031 27.730469 45.335938 L 27.730469 43.929688 C 27.730469 43.566406 27.574219 43.226562 27.277344 43.023438 L 27.164062 42.933594 C 26.574219 42.503906 26.191406 41.824219 26.054688 41.097656 L 26.03125 40.941406 C 25.941406 40.375 25.464844 39.964844 24.898438 39.964844 L 24.785156 39.964844 C 24.582031 39.964844 24.445312 39.828125 24.402344 39.695312 C 24.378906 39.648438 24.355469 39.601562 24.332031 39.582031 C 24.289062 39.488281 24.265625 39.398438 24.265625 39.308594 C 24.265625 39.261719 24.265625 39.195312 24.289062 39.148438 C 24.289062 39.128906 24.308594 39.105469 24.308594 39.105469 L 24.535156 38.96875 C 24.96875 38.71875 25.171875 38.222656 25.058594 37.746094 L 24.96875 37.316406 C 24.71875 36.25 24.945312 35.164062 25.625 34.300781 C 26.347656 33.351562 27.503906 32.804688 28.773438 32.761719 L 29.179688 32.761719 C 30.449219 32.785156 31.582031 33.351562 32.332031 34.300781 C 33.011719 35.164062 33.238281 36.226562 32.988281 37.316406 L 32.898438 37.746094 C 32.785156 38.222656 32.988281 38.71875 33.417969 38.96875 L 33.644531 39.105469 C 33.644531 39.128906 33.667969 39.148438 33.667969 39.148438 C 33.691406 39.195312 33.691406 39.261719 33.691406 39.308594 C 33.691406 39.398438 33.667969 39.488281 33.621094 39.582031 C 33.597656 39.625 33.578125 39.648438 33.554688 39.695312 C 33.507812 39.808594 33.371094 39.964844 33.167969 39.964844 L 33.054688 39.964844 C 32.488281 39.964844 32.011719 40.375 31.921875 40.941406 L 31.898438 41.097656 C 31.785156 41.824219 31.378906 42.503906 30.789062 42.933594 L 30.675781 43.023438 C 30.382812 43.25 30.222656 43.566406 30.222656 43.929688 L 30.222656 45.335938 C 30.222656 45.832031 30.539062 46.265625 30.992188 46.421875 C 31.039062 46.445312 35.183594 47.828125 37.019531 48.757812 C 37.335938 48.9375 37.746094 48.914062 38.085938 48.757812 C 39.921875 47.851562 44.066406 46.445312 44.113281 46.421875 C 44.585938 46.265625 44.882812 45.832031 44.882812 45.335938 L 44.882812 43.929688 C 44.882812 43.566406 44.722656 43.226562 44.429688 43.023438 L 44.316406 42.933594 C 43.726562 42.503906 43.339844 41.824219 43.207031 41.097656 L 43.183594 40.941406 C 43.09375 40.375 42.617188 39.964844 42.050781 39.964844 L 41.9375 39.964844 C 41.734375 39.964844 41.597656 39.828125 41.550781 39.695312 C 41.527344 39.648438 41.507812 39.601562 41.484375 39.582031 C 41.4375 39.488281 41.414062 39.398438 41.414062 39.308594 C 41.414062 39.261719 41.414062 39.195312 41.4375 39.148438 C 41.4375 39.128906 41.460938 39.105469 41.460938 39.105469 L 41.6875 38.96875 C 42.117188 38.71875 42.320312 38.222656 42.207031 37.746094 L 42.117188 37.316406 C 41.867188 36.25 42.09375 35.164062 42.773438 34.300781 C 43.5 33.351562 44.65625 32.804688 45.925781 32.761719 L 46.332031 32.761719 C 47.601562 32.785156 48.734375 33.351562 49.480469 34.300781 C 50.160156 35.164062 50.386719 36.226562 50.136719 37.316406 L 50.046875 37.746094 C 49.933594 38.222656 50.136719 38.71875 50.570312 38.96875 L 50.796875 39.105469 C 50.796875 39.128906 50.816406 39.148438 50.816406 39.148438 C 50.839844 39.195312 50.839844 39.261719 50.839844 39.308594 C 50.839844 39.398438 50.816406 39.488281 50.773438 39.582031 C 50.75 39.625 50.726562 39.671875 50.703125 39.695312 C 50.660156 39.808594 50.523438 39.964844 50.320312 39.964844 L 50.207031 39.964844 C 49.640625 39.964844 49.164062 40.375 49.074219 40.941406 L 49.050781 41.097656 C 48.9375 41.824219 48.53125 42.503906 47.964844 42.933594 L 47.851562 43.023438 C 47.554688 43.25 47.398438 43.566406 47.398438 43.929688 L 47.398438 45.335938 C 47.398438 45.832031 47.714844 46.265625 48.167969 46.421875 C 48.210938 46.445312 52.359375 47.828125 54.195312 48.757812 C 54.464844 48.890625 54.648438 49.140625 54.691406 49.414062 C 55.007812 51.25 55.054688 54.398438 55.054688 54.441406 C 55.078125 55.078125 55.621094 55.574219 56.210938 55.574219 C 56.84375 55.554688 57.34375 55.054688 57.34375 54.421875 C 57.34375 54.285156 57.273438 51.042969 56.933594 49.050781 C 56.777344 48.078125 56.121094 47.191406 55.214844 46.738281 Z M 55.214844 46.738281 "/>
<path style=" stroke:none;fill-rule:nonzero;fill:rgb(0%,0%,0%);fill-opacity:1;" d="M 1.789062 28.457031 C 2.402344 28.480469 2.945312 27.980469 2.96875 27.347656 C 2.992188 26.394531 3.105469 23.472656 3.332031 22.136719 C 3.375 21.816406 3.578125 21.546875 3.875 21.410156 C 5.800781 20.4375 10.148438 18.984375 10.195312 18.964844 C 10.671875 18.804688 10.964844 18.375 10.964844 17.875 L 10.964844 16.402344 C 10.964844 16.0625 10.808594 15.722656 10.535156 15.496094 L 10.398438 15.382812 C 9.789062 14.90625 9.355469 14.183594 9.222656 13.390625 L 9.199219 13.230469 C 9.109375 12.6875 8.632812 12.28125 8.066406 12.28125 L 7.953125 12.28125 C 7.703125 12.28125 7.542969 12.121094 7.476562 11.960938 C 7.453125 11.941406 7.453125 11.894531 7.429688 11.871094 C 7.386719 11.78125 7.363281 11.667969 7.363281 11.554688 C 7.363281 11.488281 7.386719 11.417969 7.410156 11.351562 C 7.410156 11.328125 7.429688 11.304688 7.429688 11.28125 L 7.679688 11.148438 C 8.109375 10.898438 8.316406 10.398438 8.203125 9.921875 L 8.089844 9.515625 C 7.816406 8.359375 8.066406 7.226562 8.789062 6.320312 C 9.5625 5.324219 10.785156 4.734375 12.097656 4.691406 L 12.574219 4.691406 C 13.910156 4.710938 15.132812 5.300781 15.90625 6.296875 C 16.628906 7.226562 16.878906 8.359375 16.605469 9.515625 L 16.515625 9.945312 C 16.402344 10.421875 16.628906 10.921875 17.039062 11.167969 L 17.265625 11.304688 C 17.285156 11.351562 17.285156 11.375 17.308594 11.417969 C 17.332031 11.464844 17.332031 11.507812 17.332031 11.578125 C 17.332031 11.691406 17.308594 11.804688 17.265625 11.871094 C 17.242188 11.917969 17.21875 11.960938 17.195312 12.007812 C 17.128906 12.1875 16.945312 12.324219 16.742188 12.324219 L 16.605469 12.324219 C 16.019531 12.324219 15.542969 12.753906 15.472656 13.34375 L 15.472656 13.457031 C 15.339844 14.226562 14.929688 14.953125 14.273438 15.453125 L 14.136719 15.542969 C 13.867188 15.769531 13.707031 16.085938 13.707031 16.449219 L 13.707031 17.898438 C 13.707031 18.398438 14.023438 18.828125 14.476562 18.984375 C 14.523438 19.007812 18.871094 20.457031 20.796875 21.433594 C 21.09375 21.570312 21.296875 21.839844 21.34375 22.15625 C 21.570312 23.496094 21.660156 26.417969 21.703125 27.367188 C 21.726562 27.980469 22.226562 28.480469 22.835938 28.480469 C 22.859375 28.480469 22.859375 28.480469 22.882812 28.480469 C 23.515625 28.457031 24.015625 27.933594 23.992188 27.300781 C 23.925781 25.554688 23.835938 23.109375 23.609375 21.796875 C 23.449219 20.753906 22.769531 19.871094 21.839844 19.394531 C 20.277344 18.601562 17.378906 17.582031 15.996094 17.082031 L 15.996094 16.96875 C 16.71875 16.3125 17.265625 15.453125 17.558594 14.5 C 18.328125 14.273438 18.964844 13.707031 19.28125 12.960938 C 19.507812 12.550781 19.621094 12.074219 19.621094 11.601562 C 19.621094 11.261719 19.574219 10.941406 19.460938 10.648438 C 19.371094 10.285156 19.191406 9.945312 18.917969 9.695312 C 19.210938 7.996094 18.78125 6.253906 17.71875 4.894531 C 16.515625 3.351562 14.660156 2.445312 12.621094 2.402344 L 12.097656 2.402344 C 10.082031 2.445312 8.222656 3.375 7.023438 4.917969 C 5.957031 6.277344 5.550781 7.996094 5.84375 9.695312 C 5.574219 9.96875 5.390625 10.285156 5.277344 10.648438 C 5.1875 10.941406 5.121094 11.261719 5.121094 11.578125 C 5.121094 12.054688 5.234375 12.527344 5.4375 12.9375 C 5.777344 13.683594 6.410156 14.25 7.183594 14.476562 C 7.476562 15.429688 8.019531 16.289062 8.746094 16.945312 L 8.746094 17.058594 C 7.363281 17.535156 4.484375 18.578125 2.898438 19.347656 C 1.972656 19.800781 1.292969 20.707031 1.109375 21.726562 C 0.882812 23.0625 0.769531 25.511719 0.726562 27.253906 C 0.65625 27.914062 1.15625 28.433594 1.789062 28.457031 Z M 1.789062 28.457031 "/>
</g>
</svg>
