<?xml version="1.0" encoding="UTF-8"?>
<svg xmlns="http://www.w3.org/2000/svg" xmlns:xlink="http://www.w3.org/1999/xlink" width="47px" height="47px" viewBox="0 0 47 47" version="1.1">
<g id="surface1">
<path style=" stroke:none;fill-rule:nonzero;fill:rgb(0%,0%,0%);fill-opacity:1;" d="M 8.53125 6.570312 C 7.925781 6.570312 7.363281 6.800781 6.9375 7.21875 C 6.058594 8.082031 6.058594 9.484375 6.9375 10.347656 C 7.363281 10.765625 7.925781 10.992188 8.53125 10.992188 C 9.128906 10.992188 9.691406 10.765625 10.121094 10.347656 C 10.996094 9.484375 10.996094 8.082031 10.121094 7.21875 C 9.691406 6.800781 9.128906 6.570312 8.53125 6.570312 Z M 9.058594 9.304688 C 8.914062 9.445312 8.726562 9.523438 8.53125 9.523438 C 8.328125 9.523438 8.140625 9.445312 7.996094 9.304688 C 7.703125 9.019531 7.703125 8.546875 7.996094 8.261719 C 8.140625 8.121094 8.328125 8.046875 8.53125 8.046875 C 8.726562 8.046875 8.914062 8.121094 9.058594 8.261719 C 9.351562 8.550781 9.351562 9.019531 9.058594 9.304688 Z M 9.058594 9.304688 "/>
<path style=" stroke:none;fill-rule:nonzero;fill:rgb(0%,0%,0%);fill-opacity:1;" d="M 40.0625 39.78125 C 40.9375 38.917969 40.9375 37.515625 40.0625 36.652344 C 39.636719 36.238281 39.070312 36.007812 38.46875 36.007812 C 37.871094 36.007812 37.304688 36.238281 36.878906 36.652344 C 36.003906 37.515625 36.003906 38.917969 36.878906 39.785156 C 37.304688 40.199219 37.871094 40.429688 38.46875 40.429688 C 39.070312 40.429688 39.636719 40.199219 40.0625 39.78125 Z M 37.9375 37.695312 C 38.082031 37.558594 38.273438 37.480469 38.46875 37.480469 C 38.667969 37.480469 38.859375 37.558594 39 37.695312 C 39.292969 37.984375 39.292969 38.453125 39 38.738281 C 38.859375 38.878906 38.667969 38.957031 38.46875 38.957031 C 38.273438 38.957031 38.082031 38.878906 37.9375 38.738281 C 37.648438 38.453125 37.648438 37.984375 37.9375 37.695312 Z M 37.9375 37.695312 "/>
<path style=" stroke:none;fill-rule:nonzero;fill:rgb(0%,0%,0%);fill-opacity:1;" d="M 12.71875 22.980469 C 12.863281 23.125 13.054688 23.195312 13.246094 23.195312 C 13.441406 23.195312 13.628906 23.125 13.777344 22.980469 C 14.070312 22.691406 14.070312 22.222656 13.777344 21.9375 L 1.8125 10.171875 L 9.941406 2.179688 L 15.246094 7.394531 L 12.949219 9.652344 C 12.65625 9.9375 12.65625 10.40625 12.949219 10.695312 C 13.09375 10.839844 13.285156 10.910156 13.476562 10.910156 C 13.671875 10.910156 13.859375 10.839844 14.007812 10.695312 L 16.304688 8.4375 L 18.3125 10.410156 L 16.011719 12.667969 C 15.71875 12.953125 15.71875 13.421875 16.011719 13.710938 C 16.160156 13.855469 16.351562 13.925781 16.546875 13.925781 C 16.734375 13.925781 16.929688 13.855469 17.074219 13.710938 L 19.371094 11.453125 L 21.378906 13.421875 L 19.082031 15.679688 C 18.785156 15.96875 18.785156 16.4375 19.082031 16.722656 C 19.226562 16.867188 19.417969 16.941406 19.609375 16.941406 C 19.804688 16.941406 19.992188 16.867188 20.140625 16.722656 L 22.96875 13.945312 C 23.261719 13.65625 23.261719 13.1875 22.96875 12.902344 L 10.472656 0.617188 C 10.179688 0.328125 9.707031 0.328125 9.414062 0.617188 L 0.222656 9.652344 C -0.0703125 9.9375 -0.0703125 10.40625 0.222656 10.695312 Z M 12.71875 22.980469 "/>
<path style=" stroke:none;fill-rule:nonzero;fill:rgb(0%,0%,0%);fill-opacity:1;" d="M 34.28125 24.023438 C 33.988281 23.734375 33.511719 23.734375 33.222656 24.023438 L 30.390625 26.800781 C 30.101562 27.089844 30.101562 27.558594 30.390625 27.84375 C 30.539062 27.992188 30.730469 28.0625 30.925781 28.0625 C 31.113281 28.0625 31.308594 27.992188 31.453125 27.84375 L 33.753906 25.585938 L 35.757812 27.558594 L 33.460938 29.816406 C 33.167969 30.105469 33.167969 30.574219 33.460938 30.859375 C 33.605469 31.003906 33.796875 31.074219 33.988281 31.074219 C 34.183594 31.074219 34.371094 31.003906 34.523438 30.859375 L 36.816406 28.601562 L 38.824219 30.574219 L 36.527344 32.832031 C 36.234375 33.117188 36.234375 33.585938 36.527344 33.875 C 36.671875 34.019531 36.863281 34.089844 37.054688 34.089844 C 37.246094 34.089844 37.441406 34.019531 37.585938 33.875 L 39.882812 31.617188 L 45.1875 36.828125 L 37.058594 44.820312 L 25.089844 33.058594 C 24.796875 32.769531 24.320312 32.769531 24.027344 33.058594 C 23.738281 33.34375 23.738281 33.8125 24.027344 34.101562 L 36.527344 46.386719 C 36.671875 46.53125 36.863281 46.601562 37.054688 46.601562 C 37.246094 46.601562 37.441406 46.53125 37.585938 46.386719 L 46.777344 37.351562 C 47.070312 37.0625 47.070312 36.59375 46.777344 36.308594 Z M 34.28125 24.023438 "/>
<path style=" stroke:none;fill-rule:nonzero;fill:rgb(0%,0%,0%);fill-opacity:1;" d="M 39.730469 15.535156 C 39.734375 15.535156 45.90625 9.46875 45.90625 9.46875 C 47.363281 8.03125 47.363281 5.695312 45.90625 4.257812 L 43.074219 1.476562 C 41.613281 0.0390625 39.234375 0.0390625 37.769531 1.476562 L 36.359375 2.867188 C 36.066406 3.15625 36.066406 3.621094 36.359375 3.910156 C 36.648438 4.199219 37.125 4.199219 37.417969 3.910156 L 38.832031 2.515625 C 39.710938 1.65625 41.136719 1.65625 42.015625 2.515625 L 44.84375 5.300781 C 45.722656 6.160156 45.722656 7.566406 44.84375 8.425781 L 41.835938 11.382812 L 35.296875 4.949219 C 35.003906 4.664062 34.527344 4.664062 34.234375 4.949219 L 31.601562 7.539062 C 31.601562 7.542969 5.167969 33.527344 5.167969 33.527344 C 5.167969 33.527344 5.164062 33.527344 5.164062 33.53125 C 5.160156 33.539062 5.152344 33.542969 5.148438 33.550781 C 5.085938 33.613281 5.042969 33.6875 5.007812 33.765625 L 2.117188 40.660156 C 2.117188 40.660156 2.117188 40.664062 2.117188 40.667969 L 0.0546875 45.585938 C -0.0585938 45.859375 0.0078125 46.175781 0.222656 46.386719 C 0.363281 46.527344 0.554688 46.601562 0.75 46.601562 C 0.847656 46.601562 0.941406 46.582031 1.035156 46.546875 L 6.035156 44.519531 C 6.039062 44.519531 6.042969 44.519531 6.042969 44.519531 L 13.058594 41.683594 C 13.136719 41.648438 13.210938 41.601562 13.277344 41.542969 C 13.285156 41.535156 13.289062 41.53125 13.296875 41.523438 C 13.296875 41.523438 13.300781 41.519531 13.300781 41.519531 Z M 13.027344 39.703125 C 12.828125 39.363281 12.582031 39.050781 12.292969 38.765625 C 11.703125 38.1875 10.992188 37.785156 10.234375 37.582031 L 29.832031 18.316406 C 30.128906 18.03125 30.128906 17.5625 29.832031 17.273438 C 29.539062 16.988281 29.066406 16.988281 28.773438 17.273438 L 9.171875 36.539062 C 8.96875 35.796875 8.558594 35.09375 7.972656 34.519531 C 7.683594 34.234375 7.363281 33.992188 7.019531 33.792969 L 32.132812 9.105469 L 34.605469 11.539062 L 31.601562 14.496094 C 31.308594 14.78125 31.308594 15.246094 31.601562 15.535156 C 31.75 15.679688 31.9375 15.75 32.132812 15.75 C 32.324219 15.75 32.515625 15.679688 32.660156 15.535156 L 35.667969 12.582031 L 38.140625 15.015625 Z M 5.933594 42.96875 L 3.695312 40.765625 L 6.117188 34.988281 C 6.402344 35.136719 6.675781 35.328125 6.910156 35.5625 C 7.621094 36.257812 7.949219 37.203125 7.789062 38.089844 C 7.75 38.328125 7.824219 38.570312 7.996094 38.738281 C 8.171875 38.910156 8.417969 38.988281 8.65625 38.945312 C 9.5625 38.789062 10.523438 39.113281 11.234375 39.808594 C 11.46875 40.039062 11.664062 40.304688 11.8125 40.589844 Z M 34.769531 6.515625 L 40.777344 12.425781 L 39.203125 13.972656 L 33.191406 8.0625 Z M 3.078125 42.246094 L 4.429688 43.578125 L 2.128906 44.507812 Z M 3.078125 42.246094 "/>
</g>
</svg>
