<?xml version="1.0" encoding="UTF-8"?>
<svg xmlns="http://www.w3.org/2000/svg" xmlns:xlink="http://www.w3.org/1999/xlink" width="59px" height="59px" viewBox="0 0 59 59" version="1.1">
<g id="surface1">
<path style=" stroke:none;fill-rule:nonzero;fill:rgb(0%,0%,0%);fill-opacity:1;" d="M 58.984375 47.167969 L 58.613281 45.085938 C 58.566406 44.804688 58.296875 44.617188 58.015625 44.664062 L 56.164062 44.992188 C 55.941406 44.46875 55.660156 43.980469 55.320312 43.535156 L 56.53125 42.09375 C 56.621094 41.988281 56.660156 41.851562 56.648438 41.714844 C 56.636719 41.578125 56.574219 41.453125 56.46875 41.363281 L 54.847656 40.003906 C 54.742188 39.917969 54.605469 39.875 54.46875 39.886719 C 54.335938 39.898438 54.207031 39.964844 54.121094 40.070312 L 52.910156 41.511719 C 52.414062 41.257812 51.882812 41.0625 51.328125 40.933594 L 51.328125 39.050781 C 51.328125 38.765625 51.097656 38.535156 50.8125 38.535156 L 48.695312 38.535156 C 48.410156 38.535156 48.179688 38.765625 48.179688 39.050781 L 48.179688 40.933594 C 47.625 41.0625 47.09375 41.257812 46.597656 41.511719 L 45.386719 40.070312 C 45.203125 39.851562 44.878906 39.824219 44.660156 40.003906 L 43.039062 41.363281 C 42.9375 41.453125 42.871094 41.578125 42.859375 41.714844 C 42.847656 41.851562 42.890625 41.988281 42.976562 42.09375 L 44.1875 43.535156 C 43.851562 43.980469 43.566406 44.472656 43.34375 44.992188 L 41.492188 44.664062 C 41.210938 44.617188 40.941406 44.804688 40.894531 45.085938 L 40.527344 47.167969 C 40.503906 47.300781 40.53125 47.441406 40.613281 47.554688 C 40.691406 47.664062 40.808594 47.742188 40.945312 47.765625 L 42.796875 48.09375 C 42.828125 48.667969 42.929688 49.222656 43.089844 49.75 L 41.460938 50.691406 C 41.339844 50.761719 41.253906 50.871094 41.21875 51.003906 C 41.183594 51.136719 41.203125 51.277344 41.269531 51.398438 L 42.328125 53.230469 C 42.398438 53.347656 42.511719 53.433594 42.640625 53.46875 C 42.6875 53.480469 42.730469 53.488281 42.777344 53.488281 C 42.863281 53.488281 42.953125 53.464844 43.035156 53.417969 L 44.664062 52.476562 C 45.046875 52.886719 45.480469 53.25 45.953125 53.558594 L 45.308594 55.328125 C 45.261719 55.457031 45.269531 55.597656 45.328125 55.722656 C 45.386719 55.847656 45.488281 55.941406 45.617188 55.988281 L 47.605469 56.710938 C 47.664062 56.734375 47.722656 56.742188 47.78125 56.742188 C 47.855469 56.742188 47.929688 56.726562 48 56.695312 C 48.125 56.636719 48.21875 56.53125 48.265625 56.402344 L 48.910156 54.636719 C 49.1875 54.667969 49.46875 54.6875 49.753906 54.6875 C 50.039062 54.6875 50.320312 54.667969 50.59375 54.636719 L 51.238281 56.402344 C 51.285156 56.53125 51.382812 56.636719 51.503906 56.695312 C 51.574219 56.726562 51.648438 56.742188 51.722656 56.742188 C 51.78125 56.742188 51.84375 56.734375 51.898438 56.710938 L 53.886719 55.988281 C 54.015625 55.941406 54.121094 55.847656 54.179688 55.722656 C 54.234375 55.597656 54.242188 55.457031 54.195312 55.328125 L 53.550781 53.558594 C 54.023438 53.25 54.457031 52.886719 54.839844 52.476562 L 56.472656 53.417969 C 56.550781 53.464844 56.640625 53.488281 56.730469 53.488281 C 56.773438 53.488281 56.820312 53.480469 56.863281 53.46875 C 56.996094 53.433594 57.109375 53.347656 57.175781 53.230469 L 58.234375 51.398438 C 58.300781 51.277344 58.320312 51.136719 58.285156 51.003906 C 58.25 50.875 58.164062 50.761719 58.046875 50.691406 L 56.417969 49.75 C 56.578125 49.222656 56.675781 48.667969 56.707031 48.09375 L 58.5625 47.765625 C 58.695312 47.742188 58.816406 47.664062 58.894531 47.554688 C 58.976562 47.441406 59.007812 47.300781 58.984375 47.167969 Z M 49.753906 50.476562 C 48.1875 50.476562 46.917969 49.207031 46.917969 47.640625 C 46.917969 46.074219 48.1875 44.804688 49.753906 44.804688 C 51.320312 44.804688 52.59375 46.074219 52.59375 47.640625 C 52.59375 49.207031 51.320312 50.476562 49.753906 50.476562 Z M 49.753906 50.476562 "/>
<path style=" stroke:none;fill-rule:nonzero;fill:rgb(0%,0%,0%);fill-opacity:1;" d="M 39.738281 49.5 C 39.433594 49.3125 39.167969 49.0625 38.957031 48.761719 C 38.859375 48.621094 38.777344 48.476562 38.707031 48.324219 L 3.972656 48.324219 L 3.972656 14.085938 L 51.121094 14.085938 L 51.121094 36.441406 C 52.125 36.53125 52.972656 37.195312 53.324219 38.097656 C 53.640625 37.925781 53.988281 37.820312 54.355469 37.789062 C 54.605469 37.765625 54.851562 37.78125 55.09375 37.828125 L 55.09375 5.558594 C 55.09375 3.730469 53.609375 2.246094 51.78125 2.246094 L 3.3125 2.246094 C 1.484375 2.246094 0 3.730469 0 5.558594 L 0 48.984375 C 0 50.8125 1.484375 52.296875 3.3125 52.296875 L 39.4375 52.296875 C 39.15625 51.726562 39.089844 51.082031 39.253906 50.460938 C 39.351562 50.105469 39.515625 49.777344 39.738281 49.5 Z M 47.484375 7.804688 C 47.484375 7.132812 48.03125 6.582031 48.707031 6.582031 L 49.929688 6.582031 C 50.605469 6.582031 51.152344 7.128906 51.152344 7.804688 L 51.152344 9.191406 C 51.152344 9.867188 50.605469 10.414062 49.929688 10.414062 L 48.707031 10.414062 C 48.03125 10.414062 47.484375 9.867188 47.484375 9.191406 Z M 41.800781 7.804688 C 41.800781 7.132812 42.347656 6.582031 43.023438 6.582031 L 44.246094 6.582031 C 44.921875 6.582031 45.46875 7.128906 45.46875 7.804688 L 45.46875 9.191406 C 45.46875 9.867188 44.921875 10.414062 44.246094 10.414062 L 43.023438 10.414062 C 42.347656 10.414062 41.800781 9.867188 41.800781 9.191406 Z M 36.117188 7.804688 C 36.117188 7.132812 36.664062 6.582031 37.339844 6.582031 L 38.558594 6.582031 C 39.234375 6.582031 39.78125 7.128906 39.78125 7.804688 L 39.78125 9.191406 C 39.78125 9.867188 39.234375 10.414062 38.558594 10.414062 L 37.339844 10.414062 C 36.664062 10.414062 36.117188 9.867188 36.117188 9.191406 Z M 36.117188 7.804688 "/>
<path style=" stroke:none;fill-rule:nonzero;fill:rgb(0%,0%,0%);fill-opacity:1;" d="M 23.136719 33.0625 C 23.136719 32.398438 22.746094 31.785156 22.140625 31.503906 L 16.597656 28.925781 L 22.140625 26.351562 C 22.746094 26.070312 23.136719 25.457031 23.136719 24.789062 L 23.136719 24.746094 C 23.136719 24.152344 22.839844 23.609375 22.339844 23.292969 C 22.0625 23.117188 21.742188 23.023438 21.410156 23.023438 C 21.164062 23.023438 20.910156 23.078125 20.6875 23.183594 L 11.824219 27.304688 C 11.222656 27.585938 10.828125 28.199219 10.828125 28.867188 L 10.828125 28.988281 C 10.828125 29.65625 11.21875 30.269531 11.828125 30.550781 L 20.6875 34.671875 C 20.917969 34.777344 21.160156 34.832031 21.414062 34.832031 C 21.742188 34.832031 22.0625 34.738281 22.339844 34.5625 C 22.839844 34.242188 23.136719 33.699219 23.136719 33.109375 Z M 23.136719 33.0625 "/>
<path style=" stroke:none;fill-rule:nonzero;fill:rgb(0%,0%,0%);fill-opacity:1;" d="M 31.878906 18.824219 C 31.554688 18.382812 31.035156 18.117188 30.488281 18.117188 L 30.445312 18.117188 C 29.691406 18.117188 29.03125 18.601562 28.804688 19.316406 L 22.964844 37.40625 C 22.796875 37.925781 22.890625 38.503906 23.214844 38.945312 C 23.539062 39.386719 24.058594 39.652344 24.605469 39.652344 L 24.648438 39.652344 C 25.402344 39.652344 26.0625 39.167969 26.289062 38.453125 L 32.128906 20.367188 C 32.292969 19.84375 32.203125 19.269531 31.878906 18.824219 Z M 31.878906 18.824219 "/>
<path style=" stroke:none;fill-rule:nonzero;fill:rgb(0%,0%,0%);fill-opacity:1;" d="M 43.265625 27.304688 L 34.40625 23.183594 C 34.183594 23.078125 33.933594 23.023438 33.683594 23.023438 C 33.351562 23.023438 33.03125 23.117188 32.753906 23.292969 C 32.253906 23.609375 31.957031 24.152344 31.957031 24.746094 L 31.957031 24.789062 C 31.957031 25.457031 32.347656 26.070312 32.953125 26.351562 L 38.496094 28.925781 L 32.953125 31.503906 C 32.347656 31.785156 31.957031 32.398438 31.957031 33.0625 L 31.957031 33.109375 C 31.957031 33.699219 32.253906 34.242188 32.753906 34.5625 C 33.03125 34.738281 33.351562 34.832031 33.679688 34.832031 C 33.933594 34.832031 34.175781 34.777344 34.40625 34.671875 L 43.269531 30.550781 C 43.871094 30.269531 44.261719 29.65625 44.261719 28.988281 L 44.261719 28.867188 C 44.261719 28.199219 43.871094 27.585938 43.265625 27.304688 Z M 43.265625 27.304688 "/>
</g>
</svg>
